# File created by Blade
# Date/Time:  Wed Jan 28 15:39:58 2015
#---------------------------------------------------------
:version 1.10
:name HOM
:units
  mass 1.0
  length 1.000000
  angle deg
:documentation
     Acclaim Skeleton File
:root
   axis xyz
   order TX TY TZ RX RY RZ
   position 0.000000 0.000000 0.000000
   orientation 0 0 0
:bonedata
   begin
      id 1
      name Spine_dum
      direction 0.000000 1.000000 0.000000
      length 6.864287
      axis 0.0 0.0 0.0 xyz
   end
   begin
      id 2
      name LeftUpLeg_dum
      direction 1.000000 0.000000 0.000000
      length 4.117376
      axis 0.0 0.0 0.0 xyz
   end
   begin
      id 3
      name RightUpLeg_dum
      direction -1.000000 0.000000 0.000000
      length 4.117376
      axis 0.0 0.0 0.0 xyz
   end
   begin
      id 4
      name Spine
      direction 0.000000 1.000000 0.000000
      length 0.000000
      axis 0.0 0.0 0.0 xyz
      dof rx ry rz
   end
   begin
      id 5
      name Spine_dum1
      direction 0.000000 1.000000 0.000000
      length 15.393827
      axis 0.0 0.0 0.0 xyz
   end
   begin
      id 6
      name Spine_dum2
      direction 0.000000 1.000000 0.000000
      length 9.314826
      axis 0.0 0.0 0.0 xyz
   end
   begin
      id 7
      name Spine_dum3
      direction 0.000000 1.000000 0.000000
      length 9.314826
      axis 0.0 0.0 0.0 xyz
   end
   begin
      id 8
      name Head
      direction 0.000000 1.000000 0.000000
      length 4.527550
      axis 0.0 0.0 0.0 xyz
      dof rx ry rz
   end
   begin
      id 9
      name LeftShoulder
      direction 1.000000 0.000000 0.000000
      length 8.275398
      axis 0.0 0.0 -90.0 xyz
      dof rx ry rz
   end
   begin
      id 10
      name LeftArm
      direction 1.000000 0.000000 0.000000
      length 12.002200
      axis 0.0 0.0 -90.0 xyz
      dof rx ry rz
   end
   begin
      id 11
      name LeftForeArm
      direction 1.000000 0.000000 0.000000
      length 10.144633
      axis 0.0 0.0 -90.0 xyz
      dof ry rz rx
   end
   begin
      id 12
      name LeftHand
      direction 0.000000 0.000000 0.000000
      length 0.000000
      axis 0.0 0.0 -90.0 xyz
      dof rx ry rz
   end
   begin
      id 13
      name LeftHand_dum1
      direction 0.000000 0.000000 0.000000
      length 0.000000
      axis 0.0 0.0 -90.0 xyz
   end
   begin
      id 14
      name LeftHand_dum2
      direction 1.000000 0.000000 0.000000
      length 3.937000
      axis 0.0 0.0 -90.0 xyz
   end
   begin
      id 15
      name LeftHandThumb1
      direction 0.000000 0.000000 1.000000
      length 3.937000
      axis 0.0 0.0 -90.0 xyz
      dof rx rz ry
   end
   begin
      id 16
      name RightShoulder
      direction -1.000000 0.000000 0.000000
      length 8.275398
      axis 0.0 0.0 90.0 xyz
      dof rx ry rz
   end
   begin
      id 17
      name RightArm
      direction -1.000000 0.000000 0.000000
      length 12.002200
      axis 0.0 0.0 90.0 xyz
      dof rx ry rz
   end
   begin
      id 18
      name RightForeArm
      direction -1.000000 0.000000 0.000000
      length 10.144633
      axis 0.0 0.0 90.0 xyz
      dof ry rz rx
   end
   begin
      id 19
      name RightHand
      direction 0.000000 0.000000 0.000000
      length 0.000000
      axis 0.0 0.0 90.0 xyz
      dof rx ry rz
   end
   begin
      id 20
      name RightHand_dum1
      direction 0.000000 0.000000 0.000000
      length 0.000000
      axis 0.0 0.0 90.0 xyz
   end
   begin
      id 21
      name RightHand_dum2
      direction -1.000000 0.000000 0.000000
      length 3.937000
      axis 0.0 0.0 90.0 xyz
   end
   begin
      id 22
      name RightHandThumb1
      direction 0.000000 0.000000 1.000000
      length 3.937000
      axis 0.0 0.0 90.0 xyz
      dof rx rz ry
   end
   begin
      id 23
      name LeftUpLeg
      direction 0.000000 -1.000000 0.000000
      length 19.394322
      axis 0.0 0.0 0.0 xyz
      dof rx ry rz
   end
   begin
      id 24
      name LeftLeg
      direction 0.000000 -1.000000 0.000000
      length 17.609563
      axis 0.0 0.0 0.0 xyz
      dof rx ry rz
   end
   begin
      id 25
      name LeftFoot
      direction 0.000000 -0.258819 0.965926
      length 6.085393
      axis 15.0 0.0 0.0 xyz
      dof rx ry rz
   end
   begin
      id 26
      name LeftToeBase
      direction 0.000000 0.000000 1.000000
      length 2.952750
      axis 0.0 0.0 0.0 xyz
      dof rx ry rz
   end
   begin
      id 27
      name RightUpLeg
      direction 0.000000 -1.000000 0.000000
      length 19.394322
      axis 0.0 0.0 0.0 xyz
      dof rx ry rz
   end
   begin
      id 28
      name RightLeg
      direction 0.000000 -1.000000 0.000000
      length 17.609563
      axis 0.0 0.0 0.0 xyz
      dof rx ry rz
   end
   begin
      id 29
      name RightFoot
      direction 0.000000 -0.258819 0.965926
      length 6.085393
      axis 15.0 0.0 0.0 xyz
      dof rx ry rz
   end
   begin
      id 30
      name RightToeBase
      direction 0.000000 0.000000 1.000000
      length 2.952750
      axis 0.0 0.0 0.0 xyz
      dof rx ry rz
   end
:hierarchy
   begin
      root Spine_dum LeftUpLeg_dum RightUpLeg_dum
      Spine_dum Spine
      LeftUpLeg_dum LeftUpLeg
      RightUpLeg_dum RightUpLeg
      Spine Spine_dum1 Spine_dum2 Spine_dum3
      Spine_dum1 Head
      Spine_dum2 LeftShoulder
      Spine_dum3 RightShoulder
      LeftShoulder LeftArm
      LeftArm LeftForeArm
      LeftForeArm LeftHand
      LeftHand LeftHand_dum1 LeftHand_dum2
      LeftHand_dum1 LeftHandThumb1
      RightShoulder RightArm
      RightArm RightForeArm
      RightForeArm RightHand
      RightHand RightHand_dum1 RightHand_dum2
      RightHand_dum1 RightHandThumb1
      LeftUpLeg LeftLeg
      LeftLeg LeftFoot
      LeftFoot LeftToeBase
      RightUpLeg RightLeg
      RightLeg RightFoot
      RightFoot RightToeBase
   end

# File created by Blade
# Date/Time:  Wed Jan 28 15:40:07 2015
# Frame Rate: 120.000 fps
#------------------------------------------------------
:FULLY-SPECIFIED
:DEGREES
1615
root -8.376961 40.524691 -15.292126 12.458327 -40.494391 35.743601
Spine 17.480078 -3.820331 8.061956
Head -0.362084 -25.545743 -4.347042
LeftShoulder -14.597391 17.224795 2.690356
LeftArm 12.640060 9.545544 -86.311901
LeftForeArm -6.313102 -0.000000 20.496843
LeftHand 5.843199 -0.000000 3.969924
LeftHandThumb1 -26.253704 0.000000 33.147579
RightShoulder -6.563972 8.950900 -31.141600
RightArm 9.604187 55.708392 48.256719
RightForeArm -6.138562 -0.000000 84.750385
RightHand -8.566225 -0.000000 -51.009325
RightHandThumb1 -24.326973 -0.000000 -32.862282
LeftUpLeg -29.934096 3.449695 11.060044
LeftLeg 118.663775 -0.000000 -0.000000
LeftFoot 2.713732 -4.794897 -23.809602
LeftToeBase 8.668180 -0.000000 -0.000000
RightUpLeg -41.982764 -9.573932 -14.855912
RightLeg 23.571500 -0.000000 -0.000000
RightFoot -23.284248 -20.161958 14.063964
RightToeBase 4.165518 -0.000000 -0.000000
1616
root -8.419383 40.537323 -15.305131 12.551190 -40.053178 35.325631
Spine 17.521510 -4.090152 8.110968
Head 0.101240 -25.171824 -4.554193
LeftShoulder -14.430391 17.250355 3.029319
LeftArm 12.861693 9.081902 -86.037158
LeftForeArm -4.799834 0.000000 21.704253
LeftHand 5.800994 -0.000000 4.750010
LeftHandThumb1 -26.253704 0.000000 33.147579
RightShoulder -6.460316 8.885385 -30.980148
RightArm 9.623021 55.391855 48.454184
RightForeArm -6.305553 0.000000 84.328725
RightHand -8.357202 -0.000000 -50.930519
RightHandThumb1 -24.326973 -0.000000 -32.862282
LeftUpLeg -30.305491 3.484398 10.496083
LeftLeg 115.689068 -0.000000 -0.000000
LeftFoot 0.480655 -3.793887 -23.376595
LeftToeBase 8.474010 -0.000000 -0.000000
RightUpLeg -41.521811 -9.641536 -14.600139
RightLeg 23.402922 -0.000000 -0.000000
RightFoot -23.164298 -20.229912 14.179912
RightToeBase 4.088521 -0.000000 -0.000000
1617
root -8.460421 40.548495 -15.321636 12.613565 -39.617302 34.952162
Spine 17.578861 -4.319664 8.112324
Head 0.576377 -24.717802 -4.673240
LeftShoulder -14.233600 17.356489 3.397391
LeftArm 13.146890 8.471556 -85.792984
LeftForeArm -3.484814 -0.000000 23.042482
LeftHand 5.553460 0.000000 5.299789
LeftHandThumb1 -26.253704 0.000000 33.147579
RightShoulder -6.372569 8.910224 -30.788081
RightArm 9.417554 54.975158 48.395059
RightForeArm -6.269468 -0.000000 83.900864
RightHand -7.953943 -0.000000 -51.008931
RightHandThumb1 -24.326973 -0.000000 -32.862282
LeftUpLeg -30.631349 3.504565 9.923174
LeftLeg 112.601657 -0.000000 -0.000000
LeftFoot -1.513310 -2.591847 -23.267352
LeftToeBase 7.322644 -0.000000 -0.000000
RightUpLeg -41.070877 -9.660240 -14.398859
RightLeg 23.241752 -0.000000 -0.000000
RightFoot -23.046338 -20.407688 14.238035
RightToeBase 3.898852 -0.000000 -0.000000
1618
root -8.503413 40.557441 -15.334462 12.674434 -39.200654 34.531834
Spine 17.677734 -4.549072 8.183292
Head 0.897053 -24.423659 -4.808891
LeftShoulder -13.955348 17.185265 3.810357
LeftArm 13.122123 7.873752 -85.564236
LeftForeArm -2.477694 -0.000000 24.425723
LeftHand 5.353597 -0.000000 5.650807
LeftHandThumb1 -26.253704 0.000000 33.147579
RightShoulder -6.275239 8.924696 -30.676610
RightArm 9.288312 54.573092 48.480978
RightForeArm -6.719645 -0.000000 83.592959
RightHand -8.366842 -0.000000 -51.122218
RightHandThumb1 -24.326973 -0.000000 -32.862282
LeftUpLeg -30.840397 3.480480 9.400001
LeftLeg 109.420668 -0.000000 -0.000000
LeftFoot -3.541513 -1.254254 -24.039532
LeftToeBase 7.168467 -0.000000 -0.000000
RightUpLeg -40.595576 -9.647258 -14.183372
RightLeg 23.102999 -0.000000 -0.000000
RightFoot -23.005269 -20.501207 14.474553
RightToeBase 3.941517 -0.000000 -0.000000
1619
root -8.544262 40.566421 -15.358920 12.815231 -38.704590 34.106015
Spine 17.703755 -4.850092 8.245870
Head 1.298884 -23.883679 -4.900452
LeftShoulder -13.688949 17.116643 4.232382
LeftArm 13.222876 7.298102 -85.315872
LeftForeArm -1.939149 -0.000000 25.749979
LeftHand 5.468409 -0.000000 6.020209
LeftHandThumb1 -26.253704 0.000000 33.147579
RightShoulder -6.150904 8.976926 -30.488608
RightArm 9.077969 54.157310 48.413337
RightForeArm -6.892235 0.000000 83.182569
RightHand -8.044606 -0.000000 -51.274698
RightHandThumb1 -24.326973 -0.000000 -32.862282
LeftUpLeg -31.144583 3.414962 8.956843
LeftLeg 106.188965 -0.000000 -0.000000
LeftFoot -5.416338 0.000147 -24.861561
LeftToeBase 7.271200 -0.000000 -0.000000
RightUpLeg -40.199014 -9.714181 -13.912689
RightLeg 22.976295 -0.000000 -0.000000
RightFoot -22.843335 -20.616955 14.470343
RightToeBase 3.679233 -0.000000 -0.000000
1620
root -8.586523 40.575180 -15.383191 12.958018 -38.203132 33.687677
Spine 17.727927 -5.137261 8.341235
Head 1.543020 -23.669233 -4.980645
LeftShoulder -13.409321 16.919080 4.670196
LeftArm 13.157142 6.644999 -85.142382
LeftForeArm -0.993453 -0.000000 27.282865
LeftHand 5.052170 0.000000 6.114780
LeftHandThumb1 -26.253704 0.000000 33.147579
RightShoulder -6.038855 9.104179 -30.352430
RightArm 8.647050 53.568745 48.216768
RightForeArm -7.889614 -0.000000 83.321265
RightHand -10.349608 -0.000000 -51.510100
RightHandThumb1 -24.326973 -0.000000 -32.862282
LeftUpLeg -31.398250 3.310543 8.519553
LeftLeg 102.861543 -0.000000 -0.000000
LeftFoot -7.158770 1.213816 -25.336030
LeftToeBase 7.334574 -0.000000 -0.000000
RightUpLeg -39.806786 -9.787429 -13.643588
RightLeg 22.836988 -0.000000 -0.000000
RightFoot -22.718464 -20.772870 14.511307
RightToeBase 3.557144 -0.000000 -0.000000
1621
root -8.626209 40.581053 -15.406988 13.077841 -37.739643 33.293264
Spine 17.792339 -5.430485 8.356248
Head 1.734014 -23.175948 -4.945464
LeftShoulder -13.184921 16.815189 5.139182
LeftArm 13.185371 6.034245 -84.991260
LeftForeArm -0.235978 -0.000000 28.826938
LeftHand 4.704566 -0.000000 6.176157
LeftHandThumb1 -26.253704 0.000000 33.147579
RightShoulder -5.911448 9.206517 -30.189121
RightArm 8.420112 53.165048 48.187595
RightForeArm -8.007145 -0.000000 83.010722
RightHand -10.346034 -0.000000 -51.602390
RightHandThumb1 -24.326973 -0.000000 -32.862282
LeftUpLeg -31.581038 3.256540 8.073746
LeftLeg 99.473249 -0.000000 -0.000000
LeftFoot -8.680152 2.250627 -25.445533
LeftToeBase 7.433392 -0.000000 -0.000000
RightUpLeg -39.443962 -9.829326 -13.399163
RightLeg 22.740301 -0.000000 -0.000000
RightFoot -22.625641 -20.913386 14.566500
RightToeBase 3.464325 -0.000000 -0.000000
1622
root -8.666185 40.584974 -15.434033 13.236295 -37.259372 32.883440
Spine 17.820626 -5.656424 8.418937
Head 1.954543 -22.864382 -4.852512
LeftShoulder -12.895346 16.724298 5.642853
LeftArm 13.267589 5.524275 -84.830352
LeftForeArm 0.422641 -0.000000 30.304011
LeftHand 4.601558 0.000000 6.162632
LeftHandThumb1 -26.253704 0.000000 33.147579
RightShoulder -5.857681 9.236834 -30.043691
RightArm 8.250823 52.767831 48.197796
RightForeArm -8.156538 -0.000000 82.695623
RightHand -10.419284 0.000000 -51.765437
RightHandThumb1 -24.326973 -0.000000 -32.862282
LeftUpLeg -31.734008 3.262947 7.677930
LeftLeg 96.029831 -0.000000 -0.000000
LeftFoot -10.033187 3.129025 -25.669244
LeftToeBase 7.186663 -0.000000 -0.000000
RightUpLeg -39.133918 -9.918026 -13.115531
RightLeg 22.673669 -0.000000 -0.000000
RightFoot -22.598974 -21.011839 14.777362
RightToeBase 3.541089 -0.000000 -0.000000
1623
root -8.700814 40.588972 -15.465874 13.398409 -36.752080 32.494904
Spine 17.860392 -5.939792 8.463344
Head 2.054315 -22.608398 -4.759769
LeftShoulder -12.632461 16.677703 6.159596
LeftArm 13.389513 5.023012 -84.715136
LeftForeArm 1.131222 -0.000000 31.875201
LeftHand 4.212527 0.000000 6.097351
LeftHandThumb1 -26.253704 0.000000 33.147579
RightShoulder -5.768419 9.321201 -29.916578
RightArm 8.026335 52.374780 48.170190
RightForeArm -8.327536 -0.000000 82.365177
RightHand -10.482024 -0.000000 -51.939806
RightHandThumb1 -24.326973 -0.000000 -32.862282
LeftUpLeg -31.874816 3.186114 7.279803
LeftLeg 92.522963 -0.000000 -0.000000
LeftFoot -11.241345 3.844066 -26.234561
LeftToeBase 7.193228 -0.000000 -0.000000
RightUpLeg -38.852131 -10.020708 -12.835081
RightLeg 22.629171 -0.000000 -0.000000
RightFoot -22.290142 -21.128128 14.479883
RightToeBase 2.869624 -0.000000 -0.000000
1624
root -8.736041 40.590727 -15.499357 13.581748 -36.194904 32.065066
Spine 17.911313 -6.272159 8.591789
Head 2.073059 -22.287756 -4.698236
LeftShoulder -12.319737 16.468414 6.677638
LeftArm 13.339950 4.563004 -84.582860
LeftForeArm 1.785539 -0.000000 33.492637
LeftHand 3.865525 -0.000000 5.941778
LeftHandThumb1 -26.253704 0.000000 33.147579
RightShoulder -5.688334 9.283845 -29.849903
RightArm 7.951981 52.103434 48.341661
RightForeArm -8.522500 -0.000000 82.093894
RightHand -10.453810 -0.000000 -51.895151
RightHandThumb1 -24.326973 -0.000000 -32.862282
LeftUpLeg -31.971486 3.099474 6.955055
LeftLeg 88.981732 -0.000000 -0.000000
LeftFoot -12.162711 4.426212 -26.786888
LeftToeBase 7.254076 -0.000000 -0.000000
RightUpLeg -38.553279 -10.150791 -12.521874
RightLeg 22.573694 -0.000000 -0.000000
RightFoot -22.324368 -21.141691 14.753909
RightToeBase 3.141017 -0.000000 -0.000000
1625
root -8.762774 40.591662 -15.531701 13.774105 -35.742064 31.749325
Spine 17.891881 -6.468950 8.576037
Head 2.087358 -22.045585 -4.507382
LeftShoulder -12.031456 16.318243 7.212086
LeftArm 13.364691 4.226113 -84.416565
LeftForeArm 2.532337 -0.000000 35.122938
LeftHand 3.557991 -0.000000 5.917362
LeftHandThumb1 -26.253704 0.000000 33.147579
RightShoulder -5.634282 9.396698 -29.747484
RightArm 7.646383 51.703278 48.288279
RightForeArm -8.632736 -0.000000 81.820463
RightHand -10.483239 -0.000000 -51.970454
RightHandThumb1 -24.326973 -0.000000 -32.862282
LeftUpLeg -32.053611 3.040752 6.473809
LeftLeg 85.348383 -0.000000 -0.000000
LeftFoot -13.014569 5.213779 -26.825649
LeftToeBase 7.951509 -0.000000 -0.000000
RightUpLeg -38.413574 -10.280468 -12.274213
RightLeg 22.585113 -0.000000 -0.000000
RightFoot -22.263720 -21.251071 14.766997
RightToeBase 3.103390 -0.000000 -0.000000
1626
root -8.786285 40.592171 -15.565991 13.952997 -35.273409 31.447708
Spine 17.910095 -6.702791 8.556573
Head 2.070392 -21.798588 -4.314508
LeftShoulder -11.726599 16.107817 7.751400
LeftArm 13.314728 3.899558 -84.252091
LeftForeArm 3.227504 -0.000000 36.841299
LeftHand 3.223702 -0.000000 5.773886
LeftHandThumb1 -26.253704 0.000000 33.147579
RightShoulder -5.564638 9.459575 -29.623053
RightArm 7.390503 51.341229 48.229722
RightForeArm -8.672606 -0.000000 81.538808
RightHand -10.382209 0.000000 -52.013771
RightHandThumb1 -24.326973 -0.000000 -32.862282
LeftUpLeg -32.104261 3.130271 6.022976
LeftLeg 81.696350 -0.000000 -0.000000
LeftFoot -13.520913 5.544788 -26.811464
LeftToeBase 8.472879 -0.000000 -0.000000
RightUpLeg -38.272979 -10.395793 -12.059061
RightLeg 22.617566 -0.000000 -0.000000
RightFoot -22.210732 -21.341533 14.808040
RightToeBase 2.967214 -0.000000 -0.000000
